<svg viewBox="0 0 240 120" fill="none" xmlns="http://www.w3.org/2000/svg">
<path d="M1.15381 120C20.1923 107.26 212.769 87.0741 240 120L1.15381 120Z" fill="url(#paint0_linear_6936_2395)"/>
<path d="M93.174 111.967C92.4528 109.948 102.693 82.2115 93.1741 66.2019L108.462 65.4808C108.126 71.5385 108.462 86.25 108.462 89.2789C108.462 92.3077 103.655 107.207 101.539 112.832C98.9913 113.217 93.7509 113.582 93.174 111.967Z" fill="url(#paint1_linear_6936_2395)"/>
<path d="M93.174 111.967C92.4528 109.948 102.693 82.2115 93.1741 66.2019L108.462 65.4808C108.126 71.5385 108.462 86.25 108.462 89.2789C108.462 92.3077 103.655 107.207 101.539 112.832C98.9913 113.217 93.7509 113.582 93.174 111.967Z" fill="url(#paint2_linear_6936_2395)"/>
<path fill-rule="evenodd" clip-rule="evenodd" d="M94.0438 106.941C93.4228 109.674 93.008 111.502 93.174 111.967C93.7509 113.582 98.9913 113.217 101.539 112.832C101.969 111.689 102.511 110.162 103.1 108.43C98.8754 108.675 95.3886 107.511 94.0438 106.941Z" fill="url(#paint3_linear_6936_2395)"/>
<path d="M144.375 109.615C143.942 107.308 156.058 85.0962 140.769 71.5385L148.269 68.7981C152.211 73.0289 160.154 82.6442 160.384 87.2596C160.615 91.875 155.096 104.663 152.308 110.481C149.808 110.962 144.721 111.462 144.375 109.615Z" fill="url(#paint4_linear_6936_2395)"/>
<path d="M144.375 109.615C143.942 107.308 156.058 85.0962 140.769 71.5385L148.269 68.7981C152.211 73.0289 160.154 82.6442 160.384 87.2596C160.615 91.875 155.096 104.663 152.308 110.481C149.808 110.962 144.721 111.462 144.375 109.615Z" fill="url(#paint5_linear_6936_2395)"/>
<path d="M54.1209 7.35133C51.8131 8.50505 55.2408 24.9517 64.3273 30.8652C69.3753 32.4517 69.8081 26.6825 68.0773 21.4902C66.3466 16.2979 57.2075 5.80825 54.1209 7.35133Z" fill="url(#paint6_linear_6936_2395)"/>
<path fill-rule="evenodd" clip-rule="evenodd" d="M63.8125 30.5148C64.4469 28.7211 64.4718 26.1643 64.0176 23.6646C63.1675 18.9864 57.3483 9.5594 53.6888 7.88031C52.4034 10.9181 55.7968 24.8156 63.8125 30.5148Z" fill="url(#paint7_linear_6936_2395)"/>
<path d="M82.6436 14.8554C79.6151 14.4949 77.0476 17.2494 81.7784 29.7111C89.711 32.5477 106.211 38.4228 108.749 39.2305C111.922 40.2401 114.086 33.1728 113.509 31.2257C113.225 30.2687 105.244 28.1717 98.2203 24.3025C90.9534 20.2994 84.1836 15.0388 82.6436 14.8554Z" fill="url(#paint8_linear_6936_2395)"/>
<path d="M192.323 89.0623C186.671 88.5938 183.012 79.0404 186.67 65.6971C187.388 64.5493 188.492 63.0644 190.386 64.9583C192.753 67.3256 194.26 75.9342 192.323 78.3016C190.386 80.669 189.086 85.9255 192.323 89.0623Z" fill="url(#paint9_linear_6936_2395)"/>
<path d="M190.817 65.7693C191.683 45.8654 178.558 32.3078 165.433 39.3751L168.894 43.7019C175.817 40.5289 187.788 45.4327 186.779 65.7693C186.779 65.7693 187.248 66.3101 188.762 66.3462C190.276 66.3822 190.817 65.7693 190.817 65.7693Z" fill="url(#paint10_linear_6936_2395)"/>
<path fill-rule="evenodd" clip-rule="evenodd" d="M96.2906 32.8019C105.018 36.7594 113.151 40.4471 128.798 39.0865C131.062 38.8897 133.989 38.0811 137.27 37.1749C148.415 34.0966 163.638 29.8917 170.769 44.7115C177.203 58.0818 172.846 65.0059 169.811 69.8301C168.491 71.9274 167.421 73.6278 167.596 75.2885C167.718 76.4462 168.085 77.3723 168.494 78.408C170.024 82.2749 172.159 87.6692 164.423 112.356C162.019 113.077 156.952 114.087 155.914 112.356C155.329 111.381 156.384 107.712 157.614 103.433C159.114 98.2169 160.874 92.0949 160.24 88.8461C159.317 84.1154 151.49 75.3365 147.692 71.5385C142.491 74.3834 129.991 79.8094 118.924 80.4291C119.045 84.4202 119.358 88.1154 120 90.2885C121.5 95.3654 117.644 107.885 115.529 113.51C112.981 113.894 107.74 114.26 107.163 112.644C107.026 112.258 107.246 111.071 107.579 109.278C108.655 103.491 110.902 91.3948 106.056 79.5616C98.9124 78.1053 95.5218 74.7076 93.0289 67.6442C90.2596 59.7981 85.0481 56.3942 82.7885 55.6731L78.75 26.5385C85.881 28.0817 91.1875 30.4879 96.2906 32.8019Z" fill="url(#paint11_linear_6936_2395)"/>
<path d="M61.5856 55.096C53.9413 40.5287 59.7104 25.0961 73.2681 25.0961C86.8258 25.0961 89.7106 45.5768 88.124 51.7787C86.8548 56.7403 80.4798 62.2114 77.451 64.3268C74.7106 66.1057 67.7009 66.7499 61.5856 55.096Z" fill="url(#paint12_linear_6936_2395)"/>
<path d="M72.9812 68.7981C68.2215 71.25 62.885 70.5288 63.0292 66.3461C67.2119 64.0865 75.7215 59.6538 76.2984 60C77.0196 60.4327 77.7408 66.3461 72.9812 68.7981Z" fill="url(#paint13_linear_6936_2395)"/>
<path d="M72.9812 68.7981C68.2215 71.25 62.885 70.5288 63.0292 66.3461C67.2119 64.0865 75.7215 59.6538 76.2984 60C77.0196 60.4327 77.7408 66.3461 72.9812 68.7981Z" fill="url(#paint14_radial_6936_2395)"/>
<path d="M60.0005 63.4608C58.9909 60.5761 59.2793 51.9224 65.9139 51.7782C71.6898 51.6532 81.9233 58.8454 73.1252 64.6146C64.3271 70.3838 61.0101 66.3454 60.0005 63.4608Z" fill="url(#paint15_linear_6936_2395)"/>
<path d="M69.0749 62.2953C68.8345 63.7342 68.0013 64.794 67.214 64.6624C66.4267 64.5309 65.9833 63.2578 66.2238 61.8189C66.4643 60.38 67.2974 59.3202 68.0848 59.4517C68.8721 59.5833 69.3154 60.8564 69.0749 62.2953Z" fill="url(#paint16_linear_6936_2395)"/>
<path d="M62.9146 62.1927C63.1657 63.4682 62.8035 64.6136 62.1056 64.751C61.4077 64.8884 60.6384 63.9658 60.3873 62.6903C60.1362 61.4148 60.4984 60.2695 61.1963 60.1321C61.8942 59.9947 62.6635 60.9173 62.9146 62.1927Z" fill="url(#paint17_linear_6936_2395)"/>
<path d="M61.2255 39.0145C67.7157 42.1876 65.8407 23.8703 75.5042 26.9713C81.0811 22.8367 71.9705 17.6684 71.3525 17.7148C51.7784 14.9276 64.6148 32.8847 61.2255 39.0145Z" fill="url(#paint18_linear_6936_2395)"/>
<path d="M70.2389 7.35152C67.9312 8.50537 70.0946 25.2361 79.1812 31.1496C84.2291 32.7361 85.0948 27.1154 83.364 21.9231C81.6333 16.7308 72.5466 6.19768 70.2389 7.35152Z" fill="url(#paint19_linear_6936_2395)"/>
<path fill-rule="evenodd" clip-rule="evenodd" d="M79.0994 31.0958C80.0304 29.3635 80.247 26.6403 79.7962 23.9212C78.9883 19.0477 72.9441 8.93717 69.9653 7.58563C68.1365 9.92146 70.4719 25.3935 79.0994 31.0958Z" fill="url(#paint20_linear_6936_2395)"/>
<path fill-rule="evenodd" clip-rule="evenodd" d="M117.189 108.681C116.601 110.541 116.019 112.209 115.53 113.51C112.982 113.894 107.742 114.26 107.165 112.644C107.027 112.258 107.248 111.071 107.581 109.278L107.581 109.278L107.581 109.278C107.695 108.664 107.822 107.98 107.952 107.233C109.367 107.823 112.919 108.981 117.189 108.681Z" fill="url(#paint21_linear_6936_2395)"/>
<path fill-rule="evenodd" clip-rule="evenodd" d="M145.276 106.15C144.692 107.933 144.29 109.16 144.375 109.615C144.721 111.461 149.808 110.961 152.308 110.481C152.928 109.187 153.683 107.549 154.48 105.732C150.665 105.974 147.438 105.06 145.826 104.452C145.632 105.062 145.446 105.63 145.276 106.15Z" fill="url(#paint22_linear_6936_2395)"/>
<path fill-rule="evenodd" clip-rule="evenodd" d="M165.86 107.605C165.424 109.104 164.946 110.686 164.422 112.356C162.018 113.077 156.951 114.086 155.913 112.356C155.456 111.595 155.999 109.192 156.844 106.14C158.228 106.718 161.685 107.85 165.86 107.605Z" fill="url(#paint23_linear_6936_2395)"/>
<path d="M73.9175 48.714C72.836 39.8077 79.9033 44.9279 82.0302 42.0793C80.6243 47.9567 77.6677 43.7741 76.3333 48.8942C76.249 49.0251 75.7775 48.9282 75.2725 48.8151L73.9175 48.714Z" fill="#20094E"/>
<path d="M62.0227 48.775C60.8738 40.9738 56.601 46.9396 54.1372 45.018C56.6923 49.6745 58.2285 45.4429 60.5473 49.4741C60.6505 49.5668 60.9263 49.3715 61.2141 49.1581L62.0227 48.775Z" fill="#20094E"/>
<path d="M72.7002 50.5315C74.7683 51.9218 77.5719 51.3723 78.9621 49.3042C80.3524 47.2361 79.803 44.4325 77.7349 43.0422C75.6668 41.652 72.8632 42.2014 71.4729 44.2695C70.0826 46.3376 70.6321 49.1412 72.7002 50.5315Z" fill="url(#paint24_linear_6936_2395)"/>
<path d="M61.0801 51.0474C59.7092 51.4501 58.0712 49.9838 57.4216 47.7723C56.772 45.5608 57.3568 43.4416 58.7277 43.0389C60.0986 42.6362 61.7366 44.1025 62.3862 46.314C63.0358 48.5255 62.451 50.6447 61.0801 51.0474Z" fill="url(#paint25_linear_6936_2395)"/>
<path d="M73.3097 46.6521C73.8697 46.3288 74.0652 45.6192 73.7465 45.0672C73.4278 44.5151 72.7155 44.3297 72.1555 44.653C71.5955 44.9763 71.4 45.6859 71.7187 46.2379C72.0374 46.79 72.7497 46.9754 73.3097 46.6521Z" fill="url(#paint26_radial_6936_2395)"/>
<path d="M59.4412 47.3616C59.9908 47.0443 60.1827 46.3479 59.8699 45.8061C59.5571 45.2643 58.8581 45.0824 58.3085 45.3996C57.759 45.7169 57.567 46.4133 57.8798 46.9551C58.1926 47.4969 58.8917 47.6789 59.4412 47.3616Z" fill="url(#paint27_radial_6936_2395)"/>
<defs>
<linearGradient id="paint0_linear_6936_2395" x1="161.538" y1="133.62" x2="158.157" y2="76.3524" gradientUnits="userSpaceOnUse">
<stop stop-color="#248A85"/>
<stop offset="1" stop-color="#FFDC57"/>
</linearGradient>
<linearGradient id="paint1_linear_6936_2395" x1="65.6257" y1="61.2981" x2="147.116" y2="116.106" gradientUnits="userSpaceOnUse">
<stop stop-color="#F4AA06"/>
<stop offset="1" stop-color="#6E68C1"/>
</linearGradient>
<linearGradient id="paint2_linear_6936_2395" x1="100.8" y1="92.8846" x2="113.056" y2="79.7138" gradientUnits="userSpaceOnUse">
<stop stop-color="#93768C" stop-opacity="0"/>
<stop offset="1" stop-color="#544F79"/>
</linearGradient>
<linearGradient id="paint3_linear_6936_2395" x1="90.9383" y1="102.043" x2="94.1113" y2="123.317" gradientUnits="userSpaceOnUse">
<stop stop-color="#794E06"/>
<stop offset="1" stop-color="#041467"/>
</linearGradient>
<linearGradient id="paint4_linear_6936_2395" x1="102.115" y1="54.0866" x2="197.452" y2="137.163" gradientUnits="userSpaceOnUse">
<stop stop-color="#F4AA06"/>
<stop offset="1" stop-color="#6E68C1"/>
</linearGradient>
<linearGradient id="paint5_linear_6936_2395" x1="152.308" y1="89.8622" x2="160.391" y2="77.5962" gradientUnits="userSpaceOnUse">
<stop stop-color="#93768C" stop-opacity="0"/>
<stop offset="1" stop-color="#544F79"/>
</linearGradient>
<linearGradient id="paint6_linear_6936_2395" x1="50.1259" y1="-0.473346" x2="87.1208" y2="19.9657" gradientUnits="userSpaceOnUse">
<stop stop-color="#CC8E05"/>
<stop offset="1" stop-color="#524BB5"/>
</linearGradient>
<linearGradient id="paint7_linear_6936_2395" x1="44.1006" y1="6.40928" x2="92.3228" y2="15.5489" gradientUnits="userSpaceOnUse">
<stop stop-color="#FBB7DC"/>
<stop offset="1" stop-color="#CC670F"/>
</linearGradient>
<linearGradient id="paint8_linear_6936_2395" x1="87.1785" y1="13.7284" x2="87.7407" y2="51.1537" gradientUnits="userSpaceOnUse">
<stop stop-color="#BF8727"/>
<stop offset="1" stop-color="#6479B6"/>
</linearGradient>
<linearGradient id="paint9_linear_6936_2395" x1="187.064" y1="62.9324" x2="189.573" y2="100.975" gradientUnits="userSpaceOnUse">
<stop stop-color="#B07716"/>
<stop offset="1" stop-color="#4360B9"/>
</linearGradient>
<linearGradient id="paint10_linear_6936_2395" x1="138.461" y1="9.23079" x2="230.602" y2="72.3347" gradientUnits="userSpaceOnUse">
<stop stop-color="#FFCB3E"/>
<stop offset="1" stop-color="#8381DE"/>
</linearGradient>
<linearGradient id="paint11_linear_6936_2395" x1="50.7692" y1="-18.4615" x2="217.5" y2="145.962" gradientUnits="userSpaceOnUse">
<stop stop-color="#FFC424"/>
<stop offset="1" stop-color="#6F6DD9"/>
</linearGradient>
<linearGradient id="paint12_linear_6936_2395" x1="49.2703" y1="4.36159" x2="120.618" y2="79.1438" gradientUnits="userSpaceOnUse">
<stop stop-color="#FFC424"/>
<stop offset="1" stop-color="#6F6DD9"/>
</linearGradient>
<linearGradient id="paint13_linear_6936_2395" x1="49.5611" y1="53.9051" x2="79.0971" y2="80.0491" gradientUnits="userSpaceOnUse">
<stop stop-color="#FFDC57"/>
<stop offset="1" stop-color="#A0A4F3"/>
</linearGradient>
<radialGradient id="paint14_radial_6936_2395" cx="0" cy="0" r="1" gradientUnits="userSpaceOnUse" gradientTransform="translate(67.8609 63.4255) rotate(150.578) scale(8.73475 5.18263)">
<stop offset="0.495754" stop-color="#041467"/>
<stop offset="1" stop-color="#C1B7BE" stop-opacity="0"/>
</radialGradient>
<linearGradient id="paint15_linear_6936_2395" x1="42.9812" y1="42.4039" x2="86.2505" y2="72.9808" gradientUnits="userSpaceOnUse">
<stop stop-color="#FFDC57"/>
<stop offset="1" stop-color="#A0A4F3"/>
</linearGradient>
<linearGradient id="paint16_linear_6936_2395" x1="67.1934" y1="58.2167" x2="67.214" y2="64.6624" gradientUnits="userSpaceOnUse">
<stop stop-color="#041467"/>
<stop offset="1" stop-color="#041467" stop-opacity="0"/>
</linearGradient>
<linearGradient id="paint17_linear_6936_2395" x1="60.0653" y1="59.3819" x2="62.1056" y2="64.751" gradientUnits="userSpaceOnUse">
<stop stop-color="#041467"/>
<stop offset="1" stop-color="#041467" stop-opacity="0"/>
</linearGradient>
<linearGradient id="paint18_linear_6936_2395" x1="64.1641" y1="16.4401" x2="65.0718" y2="49.9672" gradientUnits="userSpaceOnUse">
<stop stop-color="#BF8727"/>
<stop offset="1" stop-color="#6479B6"/>
</linearGradient>
<linearGradient id="paint19_linear_6936_2395" x1="66.2506" y1="-0.479231" x2="102.361" y2="18.2984" gradientUnits="userSpaceOnUse">
<stop stop-color="#CC8E05"/>
<stop offset="1" stop-color="#524BB5"/>
</linearGradient>
<linearGradient id="paint20_linear_6936_2395" x1="60.2871" y1="6.05769" x2="107.53" y2="14.4687" gradientUnits="userSpaceOnUse">
<stop stop-color="#FBB7DC"/>
<stop offset="1" stop-color="#CC670F"/>
</linearGradient>
<linearGradient id="paint21_linear_6936_2395" x1="104.785" y1="102.309" x2="107.958" y2="123.583" gradientUnits="userSpaceOnUse">
<stop stop-color="#794E06"/>
<stop offset="1" stop-color="#041467"/>
</linearGradient>
<linearGradient id="paint22_linear_6936_2395" x1="142.212" y1="99.3519" x2="145.385" y2="120.626" gradientUnits="userSpaceOnUse">
<stop stop-color="#794E06"/>
<stop offset="1" stop-color="#041467"/>
</linearGradient>
<linearGradient id="paint23_linear_6936_2395" x1="153.683" y1="101.219" x2="156.856" y2="122.493" gradientUnits="userSpaceOnUse">
<stop stop-color="#794E06"/>
<stop offset="1" stop-color="#041467"/>
</linearGradient>
<linearGradient id="paint24_linear_6936_2395" x1="82.2103" y1="48.1731" x2="67.7872" y2="46.7869" gradientUnits="userSpaceOnUse">
<stop stop-color="#20094E"/>
<stop offset="1" stop-color="#142B85"/>
</linearGradient>
<linearGradient id="paint25_linear_6936_2395" x1="55.5687" y1="45.6647" x2="64.5183" y2="46.0047" gradientUnits="userSpaceOnUse">
<stop stop-color="#20094E"/>
<stop offset="1" stop-color="#142B85"/>
</linearGradient>
<radialGradient id="paint26_radial_6936_2395" cx="0" cy="0" r="1" gradientUnits="userSpaceOnUse" gradientTransform="translate(71.8047 44.2475) rotate(61.9243) scale(3.7022 1.86815)">
<stop stop-color="white"/>
<stop offset="1" stop-color="white" stop-opacity="0"/>
</radialGradient>
<radialGradient id="paint27_radial_6936_2395" cx="0" cy="0" r="1" gradientUnits="userSpaceOnUse" gradientTransform="translate(57.9642 45.0017) rotate(61.9243) scale(3.63333 1.8334)">
<stop stop-color="white"/>
<stop offset="1" stop-color="white" stop-opacity="0"/>
</radialGradient>
</defs>
</svg>
